<svg xmlns="http://www.w3.org/2000/svg" width="16" height="16" viewBox="0 0 24 24" fill="none" stroke="#44464b" stroke-width="2" stroke-linecap="round" stroke-linejoin="round"><path d="m19.387 6.7848-5.0957 6.1909-5.0717-6.1909h-0.91015v1.2008h-1.2005v1.2008h-1.201v1.201h1.201v2.4013h-1.201v1.2013h-1.2008v9.2962h4.8339v-9.5602l4.5004 5.536h0.39284l4.4885-5.536v9.5602h4.9768v-16.501z" fill="#009dd1" stroke="none"/><path d="m4.7074 11.588h1.2005v1.2008h-1.2005zm-2.7857-8.7497 1.084-0.51706 0.51703 1.084-1.084 0.51705zm-0.40034-2.6073h1.201v1.2008h-1.201zm4.8145 6.1056 0.84912 0.84888 0.84911-0.84888-0.84911-0.84911zm-2.061-1.3451 1.1981 0.082549 0.082103-1.1981-1.1979-0.082549zm0.64032-2.9323 1.1779-0.23432 0.23427 1.1777-1.178 0.2343zm-5.2344 2.7555 1.1395 0.37807 0.3783-1.14-1.1398-0.37807zm2.7995 0.28072 1.1797-0.22417 0.22418 1.1797-1.1797 0.22417zm1.4352 3.0273 1.0639 0.55704 0.55703-1.0642-1.0637-0.5568zm-1.0017 2.2449 1.1734-0.25599-0.25624-1.1734-1.1729 0.25599zm-1.4786-3.3088h1.2008v1.2005h-1.2008z" fill="#009dd1" stroke="none"/><g transform="matrix(.72198 0 0 1.0555286 8.6852 -.66958677)"><path d="m20 10c0 4.993-5.539 10.193-7.399 11.799-0.355962 0.267668-0.846038 0.267668-1.202 0-1.86-1.606-7.399-6.806-7.399-11.799 0-4.418281 3.5817221-7.9999965 8-7.9999965 4.418278 0 8 3.5817155 8 7.9999965zm-4.609213-0.5736708c0 1.6568538-1.733933 2.6098928-3.390787 2.6098928-1.656854 0-3.3091499-0.953341-3.3091499-2.6101955 0-1.6568542 1.6912449-2.6526326 3.3480999-2.6526326 1.656854 0 3.351837 0.996081 3.351837 2.6529353z" fill="#44464b" fill-rule="evenodd" stroke="none"/></g></svg>
